<svg xmlns="http://www.w3.org/2000/svg" width="365" height="255" viewBox="0 0 365 255">
  <g fill="#3C4FEB" fill-rule="evenodd" opacity=".649" transform="translate(.47 .922)">
    <polygon points="131.929 9.642 129.057 8.487 127.899 5.613 126.746 8.487 123.872 9.642 126.746 10.792 127.903 13.668 129.053 10.792"/>
    <polygon points="17.804 114.529 13.484 116.263 17.804 117.997 19.538 122.316 21.269 117.997 25.587 116.265 21.272 114.531 19.534 110.212"/>
    <polygon points="75.09 12.523 73.037 11.698 72.207 9.641 71.384 11.698 69.327 12.523 71.384 13.348 72.211 15.403 73.033 13.348"/>
    <polygon points="16.365 48.716 14.31 47.893 13.482 45.836 12.661 47.891 10.604 48.714 12.661 49.539 13.486 51.596 14.308 49.539"/>
    <polygon points="333.33 48.794 330.249 47.558 329.007 44.474 327.773 47.556 324.687 48.794 327.773 50.032 329.011 53.115 330.245 50.032"/>
    <polygon points="84.628 43.103 81.546 41.865 80.304 38.781 79.071 41.865 75.985 43.103 79.071 44.338 80.308 47.422 81.542 44.34"/>
    <polygon points="226.263 .999 225.029 4.083 221.941 5.323 225.029 6.559 226.267 9.642 227.501 6.561 230.586 5.323 227.505 4.083"/>
    <polygon points="280.014 144.367 277.959 143.544 277.132 141.487 276.311 143.542 274.254 144.365 276.311 145.19 277.136 147.247 277.957 145.19"/>
    <polygon points="88.203 22.692 86.148 21.869 85.321 19.812 84.499 21.867 82.442 22.69 84.499 23.516 85.325 25.573 86.146 23.516"/>
    <polygon points="341.973 129.251 338.892 128.013 337.65 124.929 336.416 128.013 333.33 129.251 336.416 130.487 337.654 133.57 338.888 130.489"/>
    <polygon points="345.318 74.412 347.373 75.235 348.2 77.29 349.021 75.237 351.078 74.412 349.021 73.586 348.196 71.531 347.375 73.586"/>
    <polygon points="8.74 6.469 13.056 8.203 14.796 12.522 16.525 8.205 20.845 6.471 16.525 4.735 14.792 .415 13.06 4.735"/>
    <polygon points="283.858 54.769 288.173 56.503 289.913 60.823 291.643 56.505 295.962 54.771 291.643 53.036 289.909 48.716 288.177 53.036"/>
    <polygon points="343.754 248.64 346.923 249.912 348.201 253.085 349.472 249.914 352.643 248.642 349.472 247.367 348.197 244.194 346.927 247.367"/>
    <polygon points="2.056 73.146 -.001 73.969 2.054 74.794 2.884 76.851 3.705 74.796 5.762 73.973 3.705 73.146 2.877 71.089"/>
    <polygon points="123.872 59.691 126.953 60.927 128.195 64.011 129.429 60.929 132.515 59.691 129.429 58.453 128.191 55.37 126.957 58.453"/>
    <polygon points="17.965 38.779 20.02 39.604 20.845 41.661 21.668 39.604 23.725 38.781 21.668 37.958 20.845 35.901 20.022 37.956"/>
    <polygon points="237.434 25.188 239.489 26.013 240.314 28.07 241.137 26.013 243.194 25.19 241.137 24.366 240.314 22.309 239.491 24.364"/>
    <polygon points="360.245 35.187 358.187 36.013 360.243 36.838 361.07 38.893 361.893 36.838 363.948 36.015 361.893 35.191 361.07 33.132"/>
    <polygon points="7.724 135.75 9.779 136.573 10.606 138.63 11.427 136.575 13.484 135.752 11.427 134.927 10.602 132.869 9.781 134.927"/>
    <polygon points="102.904 66.946 104.977 67.731 105.841 69.771 106.624 67.696 108.665 66.832 106.589 66.052 105.727 64.011 104.945 66.08"/>
  </g>
</svg>
